
The.Details.2011.480p.BRRip.XviD.AC3-PTpOWeR



Format : AVI
Format/Info : Audio Video Interleave
File size : 1.46 GiB
Duration : 1h 41mn
Overall bit rate : 2 056 Kbps
Writing application : VirtualDubMod 1.5.10.2 (build 2540/release)
Writing library : VirtualDubMod build 2540/release

Video
Format : MPEG-4 Visual
Codec ID : XVID
Codec ID/Hint : XviD
Duration : 1h 41mn
Bit rate : 1 599 Kbps
Width : 720 pixels
Height : 400 pixels
Display aspect ratio : 16:9
Frame rate : 23.976 fps
Color space : YUV
Chroma subsampling : 4:2:0
Bit depth : 8 bits
Scan type : Progressive
Compression mode : Lossy
Bits/(Pixel*Frame) : 0.232
Stream size : 1.13 GiB (78%)
Writing library : XviD 64

Audio
Format : AC-3
Format/Info : Audio Coding 3
Mode extension : CM (complete main)
Codec ID : 2000
Duration : 1h 41mn
Bit rate mode : Constant
Bit rate : 448 Kbps
Channel(s) : 6 channels
Channel positions : Front: L C R, Side: L R, LFE
Sampling rate : 48.0 KHz
Bit depth : 16 bits
Compression mode : Lossy
Stream size : 325 MiB

SCREENSHOTS:
 
http://uppix.net/b/1/5/ea9669fd050482842200ed0cb6320.jpg
 
http://uppix.net/a/b/2/073524e408ef8884f438ab80efa18.jpg
 
http://uppix.net/8/7/2/47f80ac519a9dcae4c512821f552a.jpg
 
http://uppix.net/d/4/6/cd89d92b8e7b39e745c62b9df7bb9.jpg
 
http://uppix.net/d/1/9/0b9adabe03da9d2f8b77edca9e625.jpg
 
http://uppix.net/4/d/3/8d1b2108e2d920a55a914217926e7.jpg
 
http://uppix.net/5/1/b/3d1c56e32746d8275d7ffcc3ecce5.jpg
 
http://uppix.net/a/e/8/92bd4fb4c51fc5835c57184617d54.jpg
 
http://uppix.net/e/7/1/33b7e03fb89dca653872277dd31ae.jpg
 
http://uppix.net/8/c/b/0a95e08a36ae5f5d7bf5722cd8faf.jpg
 
http://uppix.net/8/8/9/727a90a6e9651958b0445078f8080.jpg
 
http://uppix.net/b/f/d/908c63b3e13b9ff99adf8a78a79c6.jpg
 
http://uppix.net/b/4/8/100a61da6c14ff61abfd9a081a273.jpg




